<?xml version="1.0" encoding="utf-8"?>
<!-- Generator: Adobe Illustrator 25.2.1, SVG Export Plug-In . SVG Version: 6.00 Build 0)  -->
<svg version="1.1" id="Layer_1" xmlns="http://www.w3.org/2000/svg" xmlns:xlink="http://www.w3.org/1999/xlink" x="0px" y="0px"
	 viewBox="0 0 1902 475" style="enable-background:new 0 0 1902 475;" xml:space="preserve">
<style type="text/css">
	.st0{display:none;}
	.st1{display:inline;fill:none;stroke:#231F20;stroke-width:2.5;stroke-linecap:square;stroke-miterlimit:10;}
	.st2{fill:#FFFFFF;}
</style>
<g class="st0">
	<path class="st1" d="M273.6,219.3"/>
</g>
<g>
	<path class="st2" d="M285.9,392.7H174.5c-87.3,0-158.3-71-158.3-158.3v-84C16.2,76,76.7,15.5,151.1,15.5S286,76,286,150.4v12.3
		h-24.6v-12.3c0-60.8-49.5-110.3-110.3-110.3S40.8,89.6,40.8,150.4v84c0,73.8,60,133.8,133.8,133.8h86.8V260.3H286v132.4H285.9z"/>
</g>
<g class="st0">
	<path class="st1" d="M273.6,272.6"/>
</g>
<g class="st0">
	<path class="st1" d="M273.6,219.3"/>
</g>
<g>
	<rect x="154.3" y="260.2" class="st2" width="130.6" height="24.6"/>
</g>
<g class="st0">
	<path class="st1" d="M568.2,219.3"/>
</g>
<g>
	<path class="st2" d="M586.4,392.7H475c-87.3,0-158.3-71-158.3-158.3v-84c0-74.4,60.5-134.9,134.9-134.9S586.5,76,586.5,150.4v12.3
		h-24.6v-12.3c0-60.8-49.5-110.3-110.3-110.3S341.3,89.6,341.3,150.4v84c0,73.8,60,133.8,133.8,133.8h86.8V260.3h24.6L586.4,392.7
		L586.4,392.7z"/>
</g>
<g class="st0">
	<path class="st1" d="M568.2,272.6"/>
</g>
<g class="st0">
	<path class="st1" d="M568.2,219.3"/>
</g>
<g>
	<rect x="454.8" y="260.2" class="st2" width="130.7" height="24.6"/>
</g>
<g>
	<path class="st2" d="M690.5,395h-66.2V21.4h66.2c116.9,0,198.6,73.2,198.6,177.9v32.4C889.1,332.4,813,395,690.5,395z M648.9,370.4
		h41.6c109,0,174-51.8,174-138.6v-32.4c0-90.3-71.6-153.4-174-153.4h-41.6V370.4z"/>
</g>
<g>
	<path class="st2" d="M963.8,345.8c10.3,7.1,23,11.3,36.8,11.3c36.1,0,65.4-28.6,65.4-64.7h23.3c0,49.2-39.2,88.4-89.1,88.4
		c-49.5,0-88.4-39.3-88.4-88.4c0-49.9,38.2-89.1,88.4-89.1c28.3,0,54.1,13.8,70.7,35L963.8,345.8z M946.8,328.8l90.5-90.5
		c-10.3-7.1-23-11.3-36.8-11.3c-36.1,0-65.1,29-65.1,65.1C935.5,305.8,939.8,318.6,946.8,328.8z"/>
	<path class="st2" d="M1089.4,356.4c36.1,0,64.7-29,64.7-64.7c0-49.2,38.9-88.4,88.4-88.4V227c-36.1,0-64.7,29-64.7,64.7
		c0,49.2-38.9,88.4-88.4,88.4V356.4z"/>
	<path class="st2" d="M1276.4,178.5c-10.6,0-20.2-8.8-20.2-20.2c0-11.3,9.6-20.5,20.2-20.5c11.3,0,20.5,9.2,20.5,20.5
		C1297,169.7,1287.8,178.5,1276.4,178.5z M1264.8,206.8h23.7v173.6h-23.7V206.8z"/>
	<path class="st2" d="M1479.1,353.2c-16.3,17.3-39.2,27.9-65.4,27.9c-49.5,0-88.4-39.2-88.4-88.4c0-49.9,38.2-89.1,88.4-89.1
		c47.4,0,88.8,38.9,89.1,88.8v84.9c0,49.2-38.9,88.4-88.4,88.4V442c36.1,0,64.7-28.6,64.7-64.7L1479.1,353.2L1479.1,353.2z
		 M1479.1,295.2v-2.8c0-35.7-29.3-65.1-65.1-65.1c-36.1,0-65.1,29.3-65.1,65.1c0,36.1,29,65.1,65.1,65.1
		C1448.7,357.5,1477.7,329.9,1479.1,295.2z"/>
	<path class="st2" d="M1534.6,205.1h23.7v25.1c15.9-17,38.5-27.6,64.7-27.6c47.7,0,89.1,38.9,89.1,89.1v88.8h-23.7v-88.8
		c0-36.1-29.4-65.4-65.1-65.4c-35.4,0-63.6,27.9-65.1,62.9v91.2h-23.7L1534.6,205.1L1534.6,205.1z"/>
	<path class="st2" d="M1735.9,356.4c36.1,0,64.7-29,64.7-64.7c0-49.2,38.9-88.4,88.4-88.4V227c-36.1,0-64.7,29-64.7,64.7
		c0,49.2-38.9,88.4-88.4,88.4V356.4z"/>
</g>
</svg>
